<?xml version="1.0" standalone="no"?>
<!DOCTYPE svg PUBLIC "-//W3C//DTD SVG 20010904//EN"
 "http://www.w3.org/TR/2001/REC-SVG-20010904/DTD/svg10.dtd">
<svg version="1.0" xmlns="http://www.w3.org/2000/svg"
 width="700.000000pt" height="700.000000pt" viewBox="0 0 700.000000 700.000000"
 preserveAspectRatio="xMidYMid meet">
<metadata>
Created by potrace 1.14, written by Peter Selinger 2001-2017
</metadata>
<g transform="translate(0.000000,700.000000) scale(0.100000,-0.100000)"
fill="#000000" stroke="none">
<path d="M2785 6630 c-623 -10 -934 -37 -1213 -106 -618 -152 -985 -541 -1115
-1184 -30 -144 -52 -315 -67 -515 -29 -373 -29 -2277 0 -2650 52 -671 187
-1047 479 -1328 287 -277 625 -399 1256 -452 404 -35 2283 -38 2705 -5 652 51
1010 176 1296 452 293 283 424 636 480 1287 35 408 35 2336 0 2741 -57 655
-187 1006 -480 1287 -316 304 -709 426 -1491 462 -297 14 -1294 20 -1850 11z
m1625 -440 c577 -17 887 -60 1115 -155 138 -57 221 -113 322 -217 184 -190
273 -447 318 -923 47 -498 47 -2292 0 -2790 -45 -475 -134 -734 -318 -923
-101 -104 -184 -160 -322 -217 -310 -129 -756 -165 -2030 -165 -1076 0 -1502
24 -1815 101 -225 55 -377 133 -508 262 -199 196 -290 449 -337 942 -47 495
-47 2295 0 2790 47 493 138 746 337 942 243 238 595 329 1363 352 387 12 1504
12 1875 1z"/>
<path d="M3436 5168 c-52 -14 -128 -89 -144 -144 -9 -31 -12 -233 -12 -810 l0
-768 -272 270 c-284 282 -300 294 -383 294 -79 0 -164 -54 -196 -124 -25 -55
-24 -138 1 -190 13 -27 177 -199 477 -498 486 -485 501 -497 593 -498 94 0
113 15 602 506 312 313 462 471 473 496 20 50 19 134 -4 184 -32 70 -117 124
-196 124 -83 0 -99 -12 -382 -294 l-273 -270 0 768 c0 577 -3 779 -12 810 -18
59 -91 129 -150 144 -54 14 -69 14 -122 0z"/>
<path d="M2265 2249 c-16 -4 -47 -22 -68 -40 -120 -99 -101 -288 36 -362 l42
-22 1225 0 1225 0 42 22 c135 73 155 259 39 361 -20 17 -52 36 -73 41 -47 13
-2424 13 -2468 0z"/>
</g>
</svg>
